<svg id="Layer_1" enable-background="new 0 0 512 512" height="512" viewBox="0 0 512 512" width="512" xmlns="http://www.w3.org/2000/svg"><g><path d="m69.997 426.452 162.385 84.41c7.774.744 15.65 1.138 23.618 1.138s15.844-.394 23.618-1.138l162.385-84.41c36.773-42.855 58.999-98.557 58.999-159.455 0-135.311-109.691-245.002-245.002-245.002s-245.002 109.692-245.002 245.003c0 60.898 22.226 116.599 58.999 159.454z" fill="#4fabf7"/><path d="m315.972 62.798c-38.952 11.624-82.01 11.624-120.963 0 10.677 40.812 28.218 84.669 52.34 124.686-.005-.006-.01-.013-.015-.019.083.139.17.278.254.416 3.296-2.042 12.506-2.044 15.805 0 .084-.139.17-.278.254-.416-.005.006-.01.013-.015.019 24.107-39.994 41.656-83.85 52.34-124.686z" fill="#3c58a0"/><path d="m250.434 71.45c-1.879 3.414-2.293 7.526-1.089 11.344 4.365 13.849 7.85 40.914-22.778 57.878-1.037.574-2.026 1.164-2.991 1.761 7.041 15.305 14.963 30.435 23.773 45.051-.005-.006-.01-.013-.015-.019.083.139.17.278.254.416 3.296-2.042 12.506-2.044 15.805 0 .084-.139.17-.278.254-.416-.005.006-.01.013-.015.019 24.108-39.993 41.656-83.85 52.34-124.686-21.078 6.29-43.357 9.169-65.538 8.652z" fill="#2a428c"/><path d="m195.579 64.923c38.443 12.108 81.381 12.108 119.824 0 5.134-19.246 8.762-37.855 10.832-55.103.204-1.7.787-3.253 1.64-4.603-43.166 24.893-101.601 24.893-144.767 0 .853 1.351 1.436 2.903 1.64 4.603 2.068 17.24 5.695 35.85 10.831 55.103z" fill="#4f71b6"/><path d="m326.234 9.82c.204-1.7.787-3.253 1.64-4.603-20.486 11.814-44.411 18.01-68.51 18.611-.595 2.411-.587 4.985.113 7.49 2.742 9.808 4.449 25.423-6.877 37.181-1.501 1.559-2.579 3.415-3.225 5.406 22.372.668 44.88-2.321 66.027-8.982 5.135-19.246 8.762-37.855 10.832-55.103z" fill="#3c58a0"/><path d="m442.003 426.452c4.361-66.655 12.68-151.718 28.285-208.819 1.967-7.199-.44-14.842-6.149-19.648-3.438-2.894-7.435-6.866-11.439-12.143h-191.346c-1.738 2.878-3.52 5.765-5.354 8.66v264.263c0 20.769 9.147 39.392 23.618 52.096 64.819-6.2 122.263-37.65 162.385-84.409z" fill="#ffc839"/><g><path d="m355.937 4.437c.054-.202.128-.392.191-.588l-18.707-3.64c-6.363-1.238-12.454 3.176-13.226 9.612-3.283 27.362-15.892 98.136-62.602 175.625 61.933-77.14 86.49-151.683 94.344-181.009z" fill="#ffc839"/></g><path d="m256 194.503c-1.835-2.895-3.616-5.782-5.354-8.66h-191.346c-4.005 5.277-8.002 9.249-11.439 12.143-5.709 4.806-8.116 12.449-6.149 19.648 15.605 57.101 23.924 142.164 28.285 208.819 40.122 46.758 97.566 78.209 162.385 84.41 14.471-12.705 23.618-31.327 23.618-52.097z" fill="#ffc839"/><path d="m180.333 452.25s0-48 0-64.5 11.918-19.477 11.918-19.477v-34.48c-12.25-4.206-11.917-17.544-11.917-17.544s0-74.963 0-130.407h-121.034c-4.005 5.277-8.002 9.249-11.439 12.143-5.709 4.806-8.116 12.449-6.149 19.648 15.605 57.101 23.924 142.164 28.285 208.819 33.792 39.382 79.874 67.902 132.3 79.626-22.306-23.13-21.964-53.828-21.964-53.828z" fill="#ffb332"/><g><path d="m156.063 4.437c-.054-.202-.128-.392-.192-.588l18.707-3.64c6.363-1.238 12.454 3.176 13.226 9.612 3.283 27.362 15.892 98.136 62.603 175.625-61.933-77.14-86.49-151.683-94.344-181.009z" fill="#ffb332"/></g><path d="m86.895 29.584c-.856 17.52-2.807 52.246-6.537 95.613-2.662 30.943-12.899 50.634-22.655 62.684h194.186c-2.374-3.887-4.671-7.759-6.877-11.61-57.105-74.031-80.253-144.258-87.88-172.668l-57.404 11.17c-7.179 1.397-12.476 7.506-12.833 14.811z" fill="#ffdd40"/><path d="m180.333 129.75c0-21.333 18.27-24.726 18.27-24.726v-.004c-24.381-44.893-36.383-82.464-41.471-101.418l-57.404 11.17c-7.179 1.397-12.476 7.506-12.834 14.811-.856 17.52-2.807 52.246-6.537 95.613-2.662 30.943-12.899 50.634-22.655 62.684h122.63c.001-27.76.001-50.993.001-58.13z" fill="#ffc839"/><path d="m454.297 187.881c-9.756-12.049-19.993-31.741-22.655-62.684-3.73-43.367-5.681-78.093-6.537-95.613-.357-7.305-5.654-13.415-12.834-14.811l-57.404-11.17c-7.627 28.41-30.775 98.637-87.88 172.668-2.206 3.851-4.503 7.723-6.877 11.61z" fill="#ffdd40"/><g><path d="m339.014 226.608h-43.885c-4.222 0-7.644-3.422-7.644-7.644s3.422-7.644 7.644-7.644h43.885c4.222 0 7.644 3.422 7.644 7.644 0 4.221-3.422 7.644-7.644 7.644z" fill="#ffdd40"/></g><g><path d="m216.871 226.608h-43.886c-4.222 0-7.644-3.422-7.644-7.644s3.422-7.644 7.644-7.644h43.886c4.222 0 7.644 3.422 7.644 7.644 0 4.221-3.422 7.644-7.644 7.644z" fill="#ffdd40"/></g><path d="m401.383 335.832v-322.056c0-2.427-1.72-4.514-4.102-4.978l-24.338-4.736c-3.131-.609-6.04 1.788-6.04 4.978v326.792z" fill="#ffb332"/><path d="m110.617 335.832v-322.056c0-2.427 1.72-4.514 4.102-4.978l24.338-4.736c3.131-.609 6.04 1.788 6.04 4.978v326.792z" fill="#ff9100"/><path d="m384.143 280.813c-9.521 0-17.24-7.719-17.24-17.24v72.259h34.48v-72.259c0 9.521-7.719 17.24-17.24 17.24z" fill="#ff9100"/><path d="m127.857 280.813c-9.521 0-17.24-7.719-17.24-17.24v72.259h34.48v-72.259c0 9.521-7.718 17.24-17.24 17.24z" fill="#ff7900"/><path d="m448.746 333.794h-192.746v34.48h190.216c2.51 0 4.604-1.904 4.841-4.403.778-8.188 1.617-16.433 2.522-24.674.317-2.884-1.932-5.403-4.833-5.403z" fill="#ffb332"/><path d="m63.254 333.794h192.746v34.48h-190.216c-2.51 0-4.604-1.904-4.841-4.403-.778-8.188-1.617-16.433-2.522-24.674-.317-2.884 1.932-5.403 4.833-5.403z" fill="#ffb332"/><path d="m192.25 333.794h-128.996c-2.901 0-5.15 2.52-4.833 5.403.905 8.241 1.744 16.486 2.522 24.674.238 2.499 2.331 4.403 4.841 4.403h126.466z" fill="#ff9100"/><g><path d="m256 468.959c-5.629 0-10.192-4.564-10.192-10.192v-264.264c0-5.628 4.563-10.192 10.192-10.192 5.628 0 10.192 4.564 10.192 10.192v264.264c0 5.628-4.563 10.192-10.192 10.192z" fill="#ffe98d"/></g><path d="m256 184.311c-5.629 0-10.192 4.564-10.192 10.192v92.857c0-5.629 4.563-10.192 10.192-10.192 5.628 0 10.192 4.564 10.192 10.192v-92.857c0-5.629-4.563-10.192-10.192-10.192z" fill="#ffdd40"/><g><path d="m256 258.766c-7.036 0-12.74-5.704-12.74-12.74v-25.126c0-7.036 5.704-12.74 12.74-12.74s12.74 5.704 12.74 12.74v25.126c0 7.036-5.704 12.74-12.74 12.74z" fill="#e9efff"/></g></g></svg>