<svg id="Layer_1" enable-background="new 0 0 512 512" height="512" viewBox="0 0 512 512" width="512" xmlns="http://www.w3.org/2000/svg"><g><path d="m245.002 11.498c-135.311 0-245.002 109.691-245.002 245.002 0 18.695 2.103 36.898 6.07 54.393l47.682 98.726c10.361 12.924 21.997 24.779 34.73 35.365l87.119 46.531c22.006 6.489 45.294 9.987 69.402 9.987 135.311 0 245.002-109.691 245.002-245.002s-109.692-245.002-245.003-245.002z" fill="#2a428c"/><path d="m383.314 232.246c-13.286-13.286-20.608-30.267-22.004-47.635-1.848 19.541-10.106 37.965-24.088 51.947l-35.374 35.374c11.695-6.716 26.907-5.088 36.888 4.892 9.964 9.963 11.587 25.209 4.88 36.9l35.144-35.144c13.983-13.983 32.369-22.524 51.904-24.351-17.27-1.453-34.137-8.77-47.35-21.983z" fill="#bec8f7"/><path d="m192.499 423.061c-9.965-9.963-11.587-25.21-4.879-36.902l-35.145 35.145c-13.983 13.984-32.369 22.524-51.904 24.352 17.268 1.453 34.135 8.771 47.348 21.984 5.855 5.855 10.548 12.428 14.089 19.435 4.471 1.61 9.005 3.088 13.592 4.44 4.124-10.456 10.296-20.072 18.41-28.186l35.377-35.376c-11.693 6.715-26.908 5.088-36.888-4.892z" fill="#a8b7ef"/><path d="m339.735 275.824c-12.453-12.453-32.831-12.453-45.284 0l-102.953 102.954c-12.453 12.453-12.453 32.831 0 45.284s32.831 12.453 45.284 0l102.954-102.954c12.452-12.453 12.452-32.831-.001-45.284z" fill="#e9efff"/><path d="m245.58 370.352c-11.188-11.188-12.618-28.584-4.294-41.362l-49.788 49.788c-12.453 12.453-12.453 32.831 0 45.284s32.831 12.453 45.284 0l48.296-48.296c-12.564 7.038-28.844 5.239-39.498-5.414z" fill="#bec8f7"/><path d="m465.39 108.836c4.294 1.768 4.734 7.665.712 9.987l-54.901 31.697c-3.153 1.82-5.095 5.184-5.095 8.825v30.705c0 3.64 1.942 7.004 5.094 8.824l26.592 15.352c3.153 1.82 7.037 1.82 10.19 0l55.661-32.136c3.942-2.276 8.818.888 8.322 5.413-1.903 17.364-9.765 34.197-23.613 47.172-28.631 26.826-73.588 27.306-102.742 1.05-32.625-29.382-33.613-79.689-2.963-110.339 22.369-22.369 55.209-27.885 82.743-16.55z" fill="#e9efff"/><path d="m148.586 466.973c-16.461-16.461-38.591-23.779-60.105-21.989 21.989 18.28 47.229 32.776 74.722 42.512-3.602-7.413-8.461-14.368-14.617-20.523z" fill="#dae2fe"/><path d="m378.007 44.908c2.408-3.62 1.929-8.436-1.146-11.51-.15-.151-19.58-19.58-20.227-20.227-3.074-3.074-7.89-3.554-11.51-1.146l-28.19 18.755c-8.261 5.496-14.81 13.206-18.898 22.248l-6.083 13.455c-1.908 4.221-4.096 8.299-6.536 12.216-.778 6.845 1.447 13.966 6.698 19.217s12.372 7.476 19.217 6.698c3.917-2.44 7.994-4.628 12.215-6.536l13.456-6.083c9.042-4.088 16.751-10.636 22.247-18.898z" fill="#e9efff"/><g><path d="m293.167 96.866c-5.846-5.846-7.803-14.496-5.367-22.185-4.665 8.291-10.441 15.921-17.188 22.668l-101.077 101.076 22.073 22.073 101.077-101.077c6.747-6.747 14.378-12.524 22.668-17.188-7.688 2.437-16.34.48-22.186-5.367z" fill="#bec8f7"/></g><path d="m169.535 198.425 22.073 22.073 53.395-53.395c-26.773 1.853-22.301-21.844-22.301-21.844z" fill="#a8b7ef"/><path d="m141.675 205.132 22.557 22.557 22.557 22.557c.419.419.805.862 1.176 1.315.105-.143.212-.284.308-.438 3.595-5.814 7.642-11.037 11.962-15.723 2.482-2.692 2.426-6.848-.163-9.437l-34.113-34.112c-2.589-2.589-6.745-2.645-9.437-.163-4.686 4.32-9.909 8.368-15.723 11.962-.154.095-.295.203-.438.308.452.368.895.754 1.314 1.174z" fill="#4f71b6"/><path d="m165.959 191.849c-2.589-2.589-6.745-2.645-9.437-.163-4.686 4.32-9.909 8.368-15.723 11.962-.154.095-.295.203-.438.308.453.37.896.756 1.315 1.176l21.929 21.929 1.327-.073c-2.927-18.262 18.177-17.989 18.177-17.989z" fill="#3c58a0"/><path d="m104.951 231.019c.432.237.844.531 1.214.902l53.835 53.834c.37.37.665.782.902 1.214 5.735-3.025 11.978-5.621 18.795-7.626 5.565-1.637 10.033-5.798 11.906-11.288l.112-.327c2.173-6.371.535-13.423-4.225-18.183l-22.557-22.557-22.557-22.557c-4.76-4.76-11.813-6.399-18.183-4.225l-.327.112c-5.49 1.873-9.651 6.341-11.288 11.906-2.006 6.817-4.602 13.06-7.627 18.795z" fill="#ffdd40"/><path d="m48.559 281.758c-15.763 7.211-30.082 17.131-42.49 29.135 2.153 9.496 4.863 18.779 8.083 27.821 4.215-2.054 8.887-3.999 13.765-5.433 18.79-5.522 36.242 11.93 30.72 30.72-2.146 7.302-5.43 14.165-8.526 19.679-3.06 5.451-4.237 10.684-4.438 15.296 2.595 3.624 5.293 7.169 8.078 10.642l13.97-11.489c18.062-14.855 32.712-33.502 42.44-54.769 5.359-11.716 13.473-25.425 25.412-37.5l-49.513-49.514c-12.076 11.94-25.785 20.053-37.501 25.412z" fill="#ffdd40"/><path d="m84.852 257.238 49.83 49.83c2.589 2.589 6.745 2.644 9.437.163 4.686-4.32 9.91-8.368 15.724-11.962 3.717-2.298 4.298-7.474 1.208-10.565l-53.835-53.835c-3.09-3.09-8.267-2.509-10.565 1.208-3.594 5.814-7.642 11.037-11.962 15.724-2.482 2.693-2.426 6.848.163 9.437z" fill="#ffc839"/><path d="m9.606 188.38c12.598 14.202 30.52 21.703 47.307 21.703 33.476 0 157.295-98.544 167.953-133.487 6.833-22.4-4.731-47.558-13.913-62.732-96.424 13.409-174.888 82.922-201.347 174.516z" fill="#3c58a0"/><path d="m484.887 306.52c-17.908-8.136-42.889-12.017-69.362 7.032-47.654 34.29-179.115 150.689-150.478 187.129 109.142-8.839 198.065-89.199 219.84-194.161z" fill="#3c58a0"/><path d="m437.792 214.227-26.592-15.352c-3.152-1.821-5.094-5.184-5.095-8.824v-30.705c0-3.64 1.942-7.004 5.095-8.825l54.901-31.697c4.021-2.322 3.581-8.219-.712-9.987-27.534-11.335-60.374-5.819-82.743 16.55-30.65 30.65-29.662 80.956 2.963 110.339 11.428 10.292 25.287 16.457 39.637 18.556-14.98-27.458 12.546-40.055 12.546-40.055z" fill="#dae2fe"/><path d="m100.571 336.861c-24.216 0-43.846-19.631-43.846-43.846 0-6.13 1.262-11.963 3.533-17.261-4.023 2.304-7.963 4.296-11.698 6.005-15.763 7.211-30.082 17.131-42.49 29.135 2.153 9.496 4.863 18.779 8.083 27.821 4.215-2.054 8.887-3.999 13.765-5.433 18.79-5.522 36.242 11.93 30.72 30.72-2.146 7.302-5.43 14.165-8.526 19.679-3.06 5.451-4.237 10.684-4.438 15.296 2.595 3.624 5.293 7.169 8.078 10.642l13.97-11.489c18.062-14.855 32.712-33.502 42.44-54.769 1.294-2.83 2.754-5.777 4.384-8.788-4.391 1.476-9.087 2.288-13.975 2.288z" fill="#ffc839"/><path d="m27.5 331.857c-4.458 1.31-9.096 3.143-13.843 5.447 8.005 22.92 19.317 44.284 33.369 63.525-.174-12.664 8.294-20.266 13.037-36.409 5.858-19.935-12.62-38.423-32.563-32.563z" fill="#3c58a0"/><path d="m96.651 232.078c-3.594 5.814-7.642 11.037-11.962 15.724-2.482 2.692-2.426 6.848.163 9.437l23.593 23.593c-3.081-26.669 25.491-23.241 25.491-23.241l-26.72-26.72c-3.091-3.091-8.267-2.51-10.565 1.207z" fill="#ffb332"/></g></svg>